<?xml version="1.0" encoding="UTF-8"?>
<svg xmlns="http://www.w3.org/2000/svg" viewBox="0 0 960 540" role="img" aria-labelledby="title desc">
  <title id="title">Stored-Program Cycle</title>
  <desc id="desc">Memory, fetch, decode, execute, write back</desc>
  <defs>
    <marker id="arrow" viewBox="0 0 10 10" refX="8" refY="5" markerWidth="7" markerHeight="7" orient="auto-start-reverse">
      <path d="M 0 0 L 10 5 L 0 10 z" fill="#4A7FBD" />
    </marker>
    <pattern id="grid" width="32" height="32" patternUnits="userSpaceOnUse">
      <path d="M 32 0 H 0 V 32" fill="none" stroke="#2A2A3E" stroke-width="1" opacity="0.55" />
    </pattern>
  </defs>
  <rect width="960" height="540" fill="#0A0A0F" />
  <rect width="960" height="540" fill="url(#grid)" opacity="0.75" />
  <rect x="28" y="26" width="904" height="488" rx="10" fill="none" stroke="#2A2A3E" stroke-width="2" />
  <text x="56" y="86" fill="#E8E6E0" font-family="Playfair Display, Georgia, serif" font-size="36" font-weight="700">Stored-Program Cycle</text>
  <text x="58" y="122" fill="#9A9888" font-family="Inter, sans-serif" font-size="17">Memory, fetch, decode, execute, write back</text>
  <path d="M 58 152 H 902" stroke="#4A7FBD" stroke-width="2" opacity="0.75" />
  
        <g>
          <rect x="42" y="205" width="135" height="84" rx="8" fill="#12121A" stroke="#4A7FBD" stroke-width="2" />
          <text x="109.5" y="236" fill="#E8E6E0" font-family="JetBrains Mono, monospace" font-size="13" text-anchor="middle">memory</text>
          <circle cx="109.5" cy="263" r="9" fill="#4CAF7D" opacity="0.9" />
          <path d="M 184 247 L 214 247" stroke="#4A7FBD" stroke-width="3" marker-end="url(#arrow)" />
        </g>

        <g>
          <rect x="227" y="205" width="135" height="84" rx="8" fill="#12121A" stroke="#4A7FBD" stroke-width="2" />
          <text x="294.5" y="236" fill="#E8E6E0" font-family="JetBrains Mono, monospace" font-size="13" text-anchor="middle">fetch</text>
          <circle cx="294.5" cy="263" r="9" fill="#4CAF7D" opacity="0.9" />
          <path d="M 369 247 L 399 247" stroke="#4A7FBD" stroke-width="3" marker-end="url(#arrow)" />
        </g>

        <g>
          <rect x="412" y="205" width="135" height="84" rx="8" fill="#12121A" stroke="#4A7FBD" stroke-width="2" />
          <text x="479.5" y="236" fill="#E8E6E0" font-family="JetBrains Mono, monospace" font-size="13" text-anchor="middle">decode</text>
          <circle cx="479.5" cy="263" r="9" fill="#4CAF7D" opacity="0.9" />
          <path d="M 554 247 L 584 247" stroke="#4A7FBD" stroke-width="3" marker-end="url(#arrow)" />
        </g>

        <g>
          <rect x="597" y="205" width="135" height="84" rx="8" fill="#12121A" stroke="#4A7FBD" stroke-width="2" />
          <text x="664.5" y="236" fill="#E8E6E0" font-family="JetBrains Mono, monospace" font-size="13" text-anchor="middle">execute</text>
          <circle cx="664.5" cy="263" r="9" fill="#4CAF7D" opacity="0.9" />
          <path d="M 739 247 L 769 247" stroke="#4A7FBD" stroke-width="3" marker-end="url(#arrow)" />
        </g>

        <g>
          <rect x="782" y="205" width="135" height="84" rx="8" fill="#12121A" stroke="#4A7FBD" stroke-width="2" />
          <text x="849.5" y="236" fill="#E8E6E0" font-family="JetBrains Mono, monospace" font-size="13" text-anchor="middle">write</text>
          <circle cx="849.5" cy="263" r="9" fill="#4CAF7D" opacity="0.9" />
          
        </g>
  <text x="56" y="472" fill="#5A5848" font-family="JetBrains Mono, monospace" font-size="12">The Codex project · original schematic · CC0</text>
</svg>
